<svg viewBox="0 0 330 200" xmlns="http://www.w3.org/2000/svg"><g><g><g><g><g><line x1="50" y1="177" x2="45" y2="177" style="visibility: inherit;" fill="rgb(0, 0, 0)" stroke="rgb(204, 204, 204)" stroke-width="1px"></line><line x1="50" y1="164.35714285714286" x2="45" y2="164.35714285714286" style="visibility: inherit;" fill="rgb(0, 0, 0)" stroke="rgb(204, 204, 204)" stroke-width="1px"></line><line x1="50" y1="151.71428571428572" x2="45" y2="151.71428571428572" style="visibility: inherit;" fill="rgb(0, 0, 0)" stroke="rgb(204, 204, 204)" stroke-width="1px"></line><line x1="50" y1="139.07142857142856" x2="45" y2="139.07142857142856" style="visibility: inherit;" fill="rgb(0, 0, 0)" stroke="rgb(204, 204, 204)" stroke-width="1px"></line><line x1="50" y1="126.42857142857143" x2="45" y2="126.42857142857143" style="visibility: inherit;" fill="rgb(0, 0, 0)" stroke="rgb(204, 204, 204)" stroke-width="1px"></line><line x1="50" y1="113.78571428571428" x2="45" y2="113.78571428571428" style="visibility: inherit;" fill="rgb(0, 0, 0)" stroke="rgb(204, 204, 204)" stroke-width="1px"></line><line x1="50" y1="101.14285714285714" x2="45" y2="101.14285714285714" style="visibility: inherit;" fill="rgb(0, 0, 0)" stroke="rgb(204, 204, 204)" stroke-width="1px"></line><line x1="50" y1="88.5" x2="45" y2="88.5" style="visibility: inherit;" fill="rgb(0, 0, 0)" stroke="rgb(204, 204, 204)" stroke-width="1px"></line><line x1="50" y1="75.85714285714286" x2="45" y2="75.85714285714286" style="visibility: inherit;" fill="rgb(0, 0, 0)" stroke="rgb(204, 204, 204)" stroke-width="1px"></line><line x1="50" y1="63.21428571428571" x2="45" y2="63.21428571428571" style="visibility: inherit;" fill="rgb(0, 0, 0)" stroke="rgb(204, 204, 204)" stroke-width="1px"></line><line x1="50" y1="50.57142857142857" x2="45" y2="50.57142857142857" style="visibility: inherit;" fill="rgb(0, 0, 0)" stroke="rgb(204, 204, 204)" stroke-width="1px"></line><line x1="50" y1="37.92857142857143" x2="45" y2="37.92857142857143" style="visibility: inherit;" fill="rgb(0, 0, 0)" stroke="rgb(204, 204, 204)" stroke-width="1px"></line><line x1="50" y1="25.285714285714295" x2="45" y2="25.285714285714295" style="visibility: inherit;" fill="rgb(0, 0, 0)" stroke="rgb(204, 204, 204)" stroke-width="1px"></line><line x1="50" y1="12.642857142857137" x2="45" y2="12.642857142857137" style="visibility: inherit;" fill="rgb(0, 0, 0)" stroke="rgb(204, 204, 204)" stroke-width="1px"></line><line x1="50" y1="0" x2="45" y2="0" style="visibility: inherit;" fill="rgb(0, 0, 0)" stroke="rgb(204, 204, 204)" stroke-width="1px"></line></g><g transform="translate(40, 0)"><text x="0" y="177" dx="0em" dy="0.3em" style="text-anchor: end; visibility: hidden; font-family: Roboto, sans-serif; font-size: 12px; font-weight: 200;" fill="rgb(33, 33, 33)" stroke="none" stroke-width="1px">-0.5</text><text x="0" y="164.35714285714286" dx="0em" dy="0.3em" style="text-anchor: end; visibility: inherit; font-family: Roboto, sans-serif; font-size: 12px; font-weight: 200;" fill="rgb(33, 33, 33)" stroke="none" stroke-width="1px">0</text><text x="0" y="151.71428571428572" dx="0em" dy="0.3em" style="text-anchor: end; visibility: hidden; font-family: Roboto, sans-serif; font-size: 12px; font-weight: 200;" fill="rgb(33, 33, 33)" stroke="none" stroke-width="1px">0.5</text><text x="0" y="139.07142857142856" dx="0em" dy="0.3em" style="text-anchor: end; visibility: inherit; font-family: Roboto, sans-serif; font-size: 12px; font-weight: 200;" fill="rgb(33, 33, 33)" stroke="none" stroke-width="1px">1</text><text x="0" y="126.42857142857143" dx="0em" dy="0.3em" style="text-anchor: end; visibility: hidden; font-family: Roboto, sans-serif; font-size: 12px; font-weight: 200;" fill="rgb(33, 33, 33)" stroke="none" stroke-width="1px">1.5</text><text x="0" y="113.78571428571428" dx="0em" dy="0.3em" style="text-anchor: end; visibility: inherit; font-family: Roboto, sans-serif; font-size: 12px; font-weight: 200;" fill="rgb(33, 33, 33)" stroke="none" stroke-width="1px">2</text><text x="0" y="101.14285714285714" dx="0em" dy="0.3em" style="text-anchor: end; visibility: hidden; font-family: Roboto, sans-serif; font-size: 12px; font-weight: 200;" fill="rgb(33, 33, 33)" stroke="none" stroke-width="1px">2.5</text><text x="0" y="88.5" dx="0em" dy="0.3em" style="text-anchor: end; visibility: inherit; font-family: Roboto, sans-serif; font-size: 12px; font-weight: 200;" fill="rgb(33, 33, 33)" stroke="none" stroke-width="1px">3</text><text x="0" y="75.85714285714286" dx="0em" dy="0.3em" style="text-anchor: end; visibility: hidden; font-family: Roboto, sans-serif; font-size: 12px; font-weight: 200;" fill="rgb(33, 33, 33)" stroke="none" stroke-width="1px">3.5</text><text x="0" y="63.21428571428571" dx="0em" dy="0.3em" style="text-anchor: end; visibility: inherit; font-family: Roboto, sans-serif; font-size: 12px; font-weight: 200;" fill="rgb(33, 33, 33)" stroke="none" stroke-width="1px">4</text><text x="0" y="50.57142857142857" dx="0em" dy="0.3em" style="text-anchor: end; visibility: hidden; font-family: Roboto, sans-serif; font-size: 12px; font-weight: 200;" fill="rgb(33, 33, 33)" stroke="none" stroke-width="1px">4.5</text><text x="0" y="37.92857142857143" dx="0em" dy="0.3em" style="text-anchor: end; visibility: inherit; font-family: Roboto, sans-serif; font-size: 12px; font-weight: 200;" fill="rgb(33, 33, 33)" stroke="none" stroke-width="1px">5</text><text x="0" y="25.285714285714295" dx="0em" dy="0.3em" style="text-anchor: end; visibility: hidden; font-family: Roboto, sans-serif; font-size: 12px; font-weight: 200;" fill="rgb(33, 33, 33)" stroke="none" stroke-width="1px">5.5</text><text x="0" y="12.642857142857137" dx="0em" dy="0.3em" style="text-anchor: end; visibility: inherit; font-family: Roboto, sans-serif; font-size: 12px; font-weight: 200;" fill="rgb(33, 33, 33)" stroke="none" stroke-width="1px">6</text><text x="0" y="0" dx="0em" dy="0.3em" style="text-anchor: end; visibility: hidden; font-family: Roboto, sans-serif; font-size: 12px; font-weight: 200;" fill="rgb(33, 33, 33)" stroke="none" stroke-width="1px">6.5</text></g><line x1="50" y1="0" x2="50" y2="177" fill="rgb(0, 0, 0)" stroke="rgb(204, 204, 204)" stroke-width="1px"></line></g></g><g transform="translate(50, 0)" clip-path="url(#clip_0)"><clipPath id="clip_0"><rect width="280" height="177"></rect></clipPath><g><g><g><line x1="0" y1="0" x2="0" y2="177" fill="rgb(0, 0, 0)" stroke="rgb(66, 66, 66)" stroke-width="1px" opacity="0.25"></line><line x1="35" y1="0" x2="35" y2="177" fill="rgb(0, 0, 0)" stroke="rgb(66, 66, 66)" stroke-width="1px" opacity="0.25"></line><line x1="70" y1="0" x2="70" y2="177" fill="rgb(0, 0, 0)" stroke="rgb(66, 66, 66)" stroke-width="1px" opacity="0.25"></line><line x1="105" y1="0" x2="105" y2="177" fill="rgb(0, 0, 0)" stroke="rgb(66, 66, 66)" stroke-width="1px" opacity="0.25"></line><line x1="140" y1="0" x2="140" y2="177" fill="rgb(0, 0, 0)" stroke="rgb(66, 66, 66)" stroke-width="1px" opacity="0.25"></line><line x1="175" y1="0" x2="175" y2="177" fill="rgb(0, 0, 0)" stroke="rgb(66, 66, 66)" stroke-width="1px" opacity="0.25"></line><line x1="210" y1="0" x2="210" y2="177" fill="rgb(0, 0, 0)" stroke="rgb(66, 66, 66)" stroke-width="1px" opacity="0.25"></line><line x1="245" y1="0" x2="245" y2="177" fill="rgb(0, 0, 0)" stroke="rgb(66, 66, 66)" stroke-width="1px" opacity="0.25"></line><line x1="280" y1="0" x2="280" y2="177" fill="rgb(0, 0, 0)" stroke="rgb(66, 66, 66)" stroke-width="1px" opacity="0.25"></line></g><g><line x1="0" y1="177" x2="280" y2="177" fill="rgb(0, 0, 0)" stroke="rgb(66, 66, 66)" stroke-width="1px" opacity="0.25"></line><line x1="0" y1="164.35714285714286" x2="280" y2="164.35714285714286" fill="rgb(0, 0, 0)" stroke="rgb(66, 66, 66)" stroke-width="1px" opacity="0.25"></line><line x1="0" y1="151.71428571428572" x2="280" y2="151.71428571428572" fill="rgb(0, 0, 0)" stroke="rgb(66, 66, 66)" stroke-width="1px" opacity="0.25"></line><line x1="0" y1="139.07142857142856" x2="280" y2="139.07142857142856" fill="rgb(0, 0, 0)" stroke="rgb(66, 66, 66)" stroke-width="1px" opacity="0.25"></line><line x1="0" y1="126.42857142857143" x2="280" y2="126.42857142857143" fill="rgb(0, 0, 0)" stroke="rgb(66, 66, 66)" stroke-width="1px" opacity="0.25"></line><line x1="0" y1="113.78571428571428" x2="280" y2="113.78571428571428" fill="rgb(0, 0, 0)" stroke="rgb(66, 66, 66)" stroke-width="1px" opacity="0.25"></line><line x1="0" y1="101.14285714285714" x2="280" y2="101.14285714285714" fill="rgb(0, 0, 0)" stroke="rgb(66, 66, 66)" stroke-width="1px" opacity="0.25"></line><line x1="0" y1="88.5" x2="280" y2="88.5" fill="rgb(0, 0, 0)" stroke="rgb(66, 66, 66)" stroke-width="1px" opacity="0.25"></line><line x1="0" y1="75.85714285714286" x2="280" y2="75.85714285714286" fill="rgb(0, 0, 0)" stroke="rgb(66, 66, 66)" stroke-width="1px" opacity="0.25"></line><line x1="0" y1="63.21428571428571" x2="280" y2="63.21428571428571" fill="rgb(0, 0, 0)" stroke="rgb(66, 66, 66)" stroke-width="1px" opacity="0.25"></line><line x1="0" y1="50.57142857142857" x2="280" y2="50.57142857142857" fill="rgb(0, 0, 0)" stroke="rgb(66, 66, 66)" stroke-width="1px" opacity="0.25"></line><line x1="0" y1="37.92857142857143" x2="280" y2="37.92857142857143" fill="rgb(0, 0, 0)" stroke="rgb(66, 66, 66)" stroke-width="1px" opacity="0.25"></line><line x1="0" y1="25.285714285714295" x2="280" y2="25.285714285714295" fill="rgb(0, 0, 0)" stroke="rgb(66, 66, 66)" stroke-width="1px" opacity="0.25"></line><line x1="0" y1="12.642857142857137" x2="280" y2="12.642857142857137" fill="rgb(0, 0, 0)" stroke="rgb(66, 66, 66)" stroke-width="1px" opacity="0.25"></line><line x1="0" y1="0" x2="280" y2="0" fill="rgb(0, 0, 0)" stroke="rgb(66, 66, 66)" stroke-width="1px" opacity="0.25"></line></g></g></g><g><g><line x1="0" y1="164.35714285714286" x2="280" y2="164.35714285714286" fill="rgb(0, 0, 0)" stroke="rgb(153, 153, 153)" stroke-width="1.5px"></line></g></g><g><g><line x1="35" y1="0" x2="35" y2="177" fill="rgb(0, 0, 0)" stroke="rgb(153, 153, 153)" stroke-width="1.5px"></line></g></g><g><g><g><g><g><path stroke="rgb(255, 112, 67)" stroke-width="2px" d="M35.7,109.53394685472762L36.4,107.71803248743093L37.1,115.58495405222725L37.800000000000004,126.22949521318706L38.5,120.8255315840721L39.2,134.58433592506108L39.9,137.56498864697522L40.599999999999994,135.43170616066104L41.3,143.34376262512936L42,141.0155650276322L42.699999999999996,142.55642830904614L43.4,146.87980340499024L44.1,155.24456978240357L44.800000000000004,144.255695800566L45.5,150.28240238161376L46.2,146.7736651588452L46.900000000000006,140.34169223317213L47.6,147.98520134818702L48.3,141.14562228313062L49,149.5959820599869L49.699999999999996,148.67175998451293L50.4,148.50715439734594L51.1,156.70822985784807L51.8,148.36694604226224L52.5,141.80741931153008L53.2,135.05916057978908L53.9,140.99402383793296L54.6,148.79601800501175L55.300000000000004,146.92769628354546L56,137.0910372816833L56.7,139.24275799896165L57.4,143.08788092764271L58.099999999999994,150.18563968381514L58.8,143.90583393881198L59.5,156.95814268086693L60.199999999999996,146.667980562838L60.9,154.4763604262462L61.6,154.90009566603726L62.300000000000004,161.02577039718187L63,153.57333835584888L63.7,149.55839320513522L64.4,154.35386127136564L65.10000000000001,153.89919906879584L65.8,146.34120026245347L66.5,146.6003374735326L67.2,146.91776799613876L67.89999999999999,141.12533906400142L68.6,151.50225699191466L69.3,151.30203032534874L70,150.63420623071184L70.7,158.33387933595753L71.4,160.40797283187393L72.10000000000001,153.57659899841482L72.8,154.5938594227136L73.5,155.28844666208622L74.2,154.5693203022025L74.9,150.5196355727945L75.60000000000001,149.25486644870023L76.30000000000001,153.53983030377768L77,147.19793882725492L77.7,144.26923858136473L78.4,145.00303158903372L79.1,153.69332259014433L79.8,147.79080175861642L80.5,150.41163507900984L81.19999999999999,147.2274434710268L81.89999999999999,156.4334932184015L82.6,156.6653613782316L83.3,148.89828542702492L84,147.43657121169267L84.7,149.5279396302039L85.39999999999999,156.4781879476044L86.1,145.295052647182L86.8,151.01024128279258L87.5,149.0033664034144L88.2,149.45769081466813L88.9,148.40238511130582L89.60000000000001,143.00854936403272L90.3,148.75870228799107L91,144.59150389630628L91.7,153.86545178881943L92.4,156.12586762151903L93.10000000000001,148.25599177228864L93.80000000000001,155.83657527460224L94.5,144.0805235876068L95.2,153.97016656069835L95.9,148.18277964298358L96.6,151.76286042266187L97.3,154.89047879764095L98,153.4835647797855L98.69999999999999,147.18348349144554L99.39999999999999,152.607923167207L100.1,142.10494097026185L100.8,147.45445957805413L101.5,150.04862965087963L102.2,148.6084434627116L102.89999999999999,151.30084569921334L103.6,147.3433648627495L104.3,145.0174732384865L105,146.0883528128422L105.7,149.48759969962316L106.4,156.06981347192047L107.10000000000001,154.50192401458045L107.8,149.77090038766636L108.5,149.0546276825797L109.2,155.303606837511L109.9,150.2862715014544L110.60000000000001,157.96910521475684L111.30000000000001,156.43104242939867L112,145.63116980427674L112.7,148.40679743143798L113.4,155.79506998290935L114.1,153.67834876256575L114.8,155.37147606124043L115.5,146.75844224648145L116.19999999999999,145.10710695963772L116.89999999999999,157.45228317716206L117.6,145.5912682942988L118.3,138.87919852855924L119,155.40744255655747L119.7,153.75566210634636L120.39999999999999,151.45193303914257L121.1,152.80131680756506L121.8,152.7779399619337L122.5,146.98228456736643L123.2,155.5900138005799L123.9,155.00397281679597L124.60000000000001,138.7442332218841L125.3,147.19260668539326L126,151.93275582384865L126.7,149.2170830234767L127.4,155.52408810219413L128.1,153.96230094612903L128.8,154.90711012944055L129.5,144.5239008117254L130.20000000000002,152.89131872610076L130.9,153.61015235764967L131.6,152.35930618291673L132.29999999999998,151.72060996575837L133,151.7267520524115L133.7,145.37890994908025L134.4,151.85955770524046L135.1,157.3014309437188L135.79999999999998,154.51077832341872L136.5,153.59794416889974L137.2,144.53557035201226L137.9,151.11074164175096L138.6,155.974662452966L139.3,155.21036607798598L140,149.8347686755977L140.7,148.23134765492873L141.4,154.48884976658442L142.1,150.903097021614L142.8,151.1445232705346L143.5,156.3879443137351L144.20000000000002,152.95301825468053L144.89999999999998,146.36352392730612L145.6,151.31197512124643L146.29999999999998,149.268677497684L147,156.5403545216141L147.7,152.8838578840632L148.4,153.0203175393007L149.1,150.62561342850518L149.8,155.0391731693139L150.5,148.74133285010316L151.20000000000002,158.034992728438L151.9,148.4845234945188L152.60000000000002,141.90652458253172L153.29999999999998,150.0357113303122L154,148.32590350304739L154.7,142.08716146162632L155.4,146.9580123633883L156.1,159.4593421381571L156.8,148.0211803704899L157.5,152.84162150861928L158.2,155.29970576961693L158.9,154.248565786517L159.6,154.90487179603767L160.3,144.60887021301167L161,158.38788590214696L161.70000000000002,153.6691264107322L162.39999999999998,144.41836047074247L163.1,152.69592734772843L163.79999999999998,159.71605473871563L164.5,157.84553957504306L165.2,156.13146691601116L165.9,160.22077562803193L166.6,151.64066200209703L167.3,151.85353913384526L168,147.4814684427305L168.70000000000002,151.1156695693963L169.4,146.60097554369756L170.10000000000002,149.78418333308508L170.79999999999998,155.88416000318625L171.5,158.58268862580863L172.2,154.14768463463372L172.9,149.6880366364064L173.6,148.9258892876744L174.3,153.67394014463224L175,149.64604122925854L175.7,146.49703190060634L176.4,153.28292066023218L177.1,155.13024418509346L177.8,157.25203371839314L178.5,151.8212276519433L179.20000000000002,150.33686632314672L179.89999999999998,154.13740479614566L180.6,157.29066896387198L181.29999999999998,157.09608549385885L182,153.70066411556823L182.7,142.49574150166103L183.4,146.70047090418873L184.1,149.31787753990565L184.8,156.09586317684725L185.5,155.59221803779062L186.20000000000002,155.1858781507889L186.9,138.2153419462042L187.60000000000002,150.72801879626678L188.29999999999998,140.5038114703979L189,154.27633423276933L189.7,157.3921023746781L190.4,148.12275640605586L191.1,144.60011355374436L191.8,147.70523174058292L192.5,151.59620234167014L193.2,152.55272896360253L193.9,149.6099469403753L194.6,154.0762566390795L195.3,150.19174807451864L196,159.67929534873613L196.70000000000002,143.70063706918256L197.39999999999998,152.539425590938L198.1,159.38620519269423L198.79999999999998,158.58613422358977L199.5,157.54074446538692L200.2,152.9274900535267L200.9,158.88810131007577L201.6,156.88930669341283L202.3,144.7596034036032L203,153.4358660539733L203.70000000000002,155.8756185522188L204.4,150.80386989798242L205.10000000000002,132.0237929297624L205.79999999999998,143.45216953763466L206.5,152.46902592537947L207.2,148.5188038563344L207.9,151.1828756868429L208.6,148.8505047457394L209.3,153.03732978883016L210,158.59598101284044L210.7,152.08343871043593L211.4,156.26949388370974L212.1,153.97435288242175L212.8,152.50460333866553L213.5,152.56950294440398L214.20000000000002,150.6499602230796L214.89999999999998,156.80774548164786L215.6,156.2392876840784L216.29999999999998,151.4762341581165L217,157.53440138804885L217.7,156.6957127958859L218.4,147.98507432223224L219.1,152.75483964224503L219.8,145.0865535429114L220.5,151.79912281541164L221.20000000000002,154.63433869023459L221.9,152.82088684868663L222.60000000000002,156.42978879812838L223.29999999999998,152.57164735407235L224,148.81620185653318L224.7,147.220629363582L225.4,151.09676014511828L226.1,144.1469809428301L226.8,132.36976231970255L227.5,156.58471146886853L228.2,153.8126677081183L228.9,149.45700972774895L229.6,143.98388678613676L230.3,155.04552208591028L231,141.94207566803058L231.70000000000002,141.77186749524517L232.39999999999998,148.1531979460029L233.1,152.89050303464154L233.79999999999998,152.36373422886962L234.5,145.71673095462302L235.2,154.36990560611616L235.9,147.38474490954957L236.6,146.14013132662322L237.3,146.20845116667266L238,142.48908057154247L238.70000000000002,147.63694650615537L239.4,144.56202980084345L240.10000000000002,144.55888597116012L240.79999999999998,150.68415874583178L241.5,147.7608307148402L242.2,154.23402737520794L242.9,141.73136339819087L243.6,151.2189858996093L244.3,152.67408548073314L245,145.42717792391016" style="fill: none;" fill="none"></path></g><g><path stroke="rgb(0, 119, 187)" stroke-width="2px" d="M35,15.725959437234069L49,118.9171070735473L63,133.03567093353283L77,135.49923742123983L91,136.4764310775277L105,137.64009505977916L119,136.95842787037725L133,137.0829692908609L147,137.88749462065488L161,137.28469463397698L175,138.86071893222766L189,137.12159473520168L203,137.22007593645603L217,136.96291799467704L231,138.97403980191532L245,138.79948510783763" style="fill: none;" fill="none"></path></g></g></g></g><g opacity="0.2"><g><g><g><path stroke="rgb(255, 112, 67)" stroke-width="2px" d="M35.7,109.53394685472762L36.4,107.4038793018886L37.1,117.18138057844979L37.800000000000004,128.44469572816575L38.5,119.69608988080705L39.2,137.4620920249394L39.9,138.18849420547485L40.599999999999994,134.98544720241L41.3,144.9988831451961L42,140.5285298057965L42.699999999999996,142.87876124892915L43.4,147.78420955794198L44.1,156.9943939447403L44.800000000000004,141.95693497998374L45.5,151.54312818390983L46.2,146.0396729707718L46.900000000000006,138.99618882792336L47.6,149.58414581843783L48.3,139.71485181365694L49,151.36371149335588L49.699999999999996,148.4784221138273L50.4,148.4727205804416L51.1,158.42381154426505L51.8,146.62203419208527L52.5,140.4352329458509L53.2,133.64749339648654L53.9,142.23553694997514L54.6,150.428115938391L55.300000000000004,146.53686235632216L56,135.0333081313542L56.7,139.69287611757005L57.4,143.89224158866065L58.099999999999994,151.67041872228896L58.8,142.59216236216682L59.5,159.6885530948639L60.199999999999996,144.51538316692626L60.9,156.1097941824368L61.6,154.98873677424024L62.300000000000004,162.30719933126656L63,152.0143652686051L63.7,148.71850746018546L64.4,155.35702448231834L65.10000000000001,153.80408835411072L65.8,144.76014368023192L66.5,146.65454634598325L67.2,146.98417123726438L67.89999999999999,139.91362176622664L68.6,153.67300282205855L69.3,151.2601449404444L70,150.49450421333313L70.7,159.94457274249623L71.4,160.84185212424825L72.10000000000001,152.14754498004913L72.8,154.8066599709647L73.5,155.43374725750516L74.2,154.41888637202126L74.9,149.67248266083854L75.60000000000001,148.99028959444593L76.30000000000001,154.4362012190478L77,145.8712795461927L77.7,143.65658423730304L78.4,145.15653363295962L79.1,155.51124319859912L79.8,146.556054353714L80.5,150.9598867893219L81.19999999999999,146.56134292909076L81.89999999999999,158.3593053179128L82.6,156.71386584213803L83.3,147.27349202973502L84,147.13079544476102L84.7,149.96543266092027L85.39999999999999,157.93210930057933L86.1,142.955654331616L86.8,152.20580069507872L87.5,148.5835485628673L88.2,149.5527308668409L88.9,148.18162587710788L89.60000000000001,141.88021371194293L90.3,149.9615758742605L91,143.71976831981112L91.7,155.805467490639L92.4,156.5987236542361L93.10000000000001,146.60969368049075L93.80000000000001,157.42235634582383L94.5,141.62127698319298L95.2,156.03897941964013L95.9,146.97211708341325L96.6,152.51177695819308L97.3,155.54474479385783L98,153.18925265754973L98.69999999999999,145.86557047707694L99.39999999999999,153.74266085028648L100.1,139.90782377549579L100.8,148.5735245347023L101.5,150.59130368062426L102.2,148.30717114039828L102.89999999999999,151.86406889983584L103.6,146.51550006866455L104.3,144.5309203352247L105,146.3123699426651L105.7,150.19868762152535L106.4,157.44674573625835L107.10000000000001,154.17393746546338L107.8,148.78121829884392L108.5,148.9047907079969L109.2,156.6108298046248L109.9,149.23669591120313L110.60000000000001,159.57627599154202L111.30000000000001,156.10929531710488L112,143.37194614751L112.7,148.98743053844998L113.4,157.34062155655454L114.1,153.23555218321937L114.8,155.7256610946996L115.5,144.9566830566951L116.19999999999999,144.76166439056396L116.89999999999999,160.03476864950997L117.6,143.11006445544106L118.3,137.47510170936584L119,158.86498332662242L119.7,153.41012641361783L120.39999999999999,150.97001631770814L121.1,153.0835941859654L121.8,152.7730497632708L122.5,145.7698923264231L123.2,157.3906633257866L123.9,154.88137899552075L124.60000000000001,135.34286085196902L125.3,148.95992060218538L126,152.9243468769959L126.7,148.6489918572562L127.4,156.84344950318336L128.1,153.63559093645642L128.8,155.10475461397854L129.5,142.35183888673782L130.20000000000002,154.64169756429536L130.9,153.76052505203654L131.6,152.09764186825072L132.29999999999998,151.58700120449066L133,151.72803691455294L133.7,144.0510058573314L134.4,153.21524339062827L135.1,158.43981555104256L135.79999999999998,153.92700214045388L136.5,153.40698853560855L137.2,142.6398137978145L137.9,152.48620069026947L138.6,156.99214528288158L139.3,155.05048303944724L140,148.7102483000074L140.7,147.89592826366425L141.4,155.79785564967563L142.1,150.1529939685549L142.8,151.19502718959535L143.5,157.4848147375243L144.20000000000002,152.23446661233902L144.89999999999998,144.98506864479612L145.6,152.34714084863663L146.29999999999998,148.8412403890065L147,158.06151549518108L147.7,152.11895592723573L148.4,153.0488635131291L149.1,150.1246656520026L149.8,155.96244503770558L150.5,147.42388862371445L151.20000000000002,159.979131977473L151.9,146.4866623367582L152.60000000000002,140.53047402415956L153.29999999999998,151.73625462821553L154,147.96822907243455L154.7,140.7820799946785L155.4,147.97694489785601L156.1,162.07449334859848L156.8,145.62843310832977L157.5,153.85000883255685L158.2,155.81391202977727L158.9,154.02867797868592L159.6,155.0421643470015L160.3,142.4550512603351L161,161.27031602816922L161.70000000000002,152.682009854487L162.39999999999998,142.48319419792722L163.1,154.42751026153564L163.79999999999998,161.18459408410956L164.5,157.4542468019894L165.2,155.77290032591137L165.9,161.076217474682L166.6,149.84578938143594L167.3,151.89807086757253L168,146.56687566212247L168.70000000000002,151.8759075318064L169.4,145.65654741014754L170.10000000000002,150.45007807016373L170.79999999999998,157.16021316392082L171.5,159.14719340418068L172.2,153.21992684687888L172.9,148.75512357269014L173.6,148.76645580359866L174.3,154.66718415703093L175,148.8034456883158L175.7,145.8382911341531L176.4,154.7024596631527L177.1,155.51668550286976L177.8,157.6958905373301L178.5,150.68515818459647L179.20000000000002,150.0263530101095L179.89999999999998,154.9324388418879L180.6,157.9502997994423L181.29999999999998,157.0553806083543L182,152.99037645118577L182.7,140.15178550141198L183.4,147.58005758694242L184.1,149.8654124225889L184.8,157.51374892677578L185.5,155.4868605903217L186.20000000000002,155.10087597370148L186.9,134.66527814524514L187.60000000000002,153.34554369960512L188.29999999999998,138.36501114709037L189,157.15740610446247L189.7,158.04388942250182L190.4,146.18370337997163L191.1,143.86321244921004L191.8,148.35479092597961L192.5,152.41015387007167L193.2,152.7528246172837L193.9,148.99434683152606L194.6,155.01056326287133L195.3,149.3791483385222L196,161.66399387163776L196.70000000000002,140.3580640554428L197.39999999999998,154.38841037239348L198.1,160.81848194130828L198.79999999999998,158.4187675033297L199.5,157.32205954619815L200.2,151.96244408828872L200.9,160.1350006418569L201.6,156.47117916175296L202.3,142.22219267913272L203,155.25085207394193L203.70000000000002,156.38598999381065L204.4,149.74291159425462L205.10000000000002,128.09519158090865L205.79999999999998,145.84286984375547L206.5,154.35526069572995L207.2,147.69245752266477L207.9,151.74017245428902L208.6,148.36259643520629L209.3,153.91317106144768L210,159.75879438860076L210.7,150.72108100993293L211.4,157.14517410738128L212.1,153.4942326971463L212.8,152.19714666264397L213.5,152.58307928272654L214.20000000000002,150.24841138294767L214.89999999999998,158.0958916119167L215.6,156.12037208676338L216.29999999999998,150.47985173974718L217,158.80170843856675L217.7,156.52026766112874L218.4,146.16289722919464L219.1,153.75262609975678L219.8,143.48242597920554L220.5,153.20332412634576L221.20000000000002,155.22743705340793L221.9,152.44153114301818L222.60000000000002,157.18473442963193L223.29999999999998,151.76456335186958L224,148.030600803239L224.7,146.88685180459703L225.4,151.90760733400072L226.1,142.69315772397178L226.8,129.90608780724662L227.5,161.6502328749214L228.2,153.2327843095575L228.9,148.54585031952178L229.6,142.83896505832672L230.3,157.35950383543968L231,139.2009677716664L231.70000000000002,141.73626167433602L232.39999999999998,149.48810745988573L233.1,153.8814991414547L233.79999999999998,152.25353954519545L234.5,144.3262453845569L235.2,156.18006185122897L235.9,145.92352024146487L236.6,145.87977080685752L237.3,146.2227429832731L238,141.71102602141244L238.70000000000002,148.7138277717999L239.4,143.91878845861982L240.10000000000002,144.55822831392288L240.79999999999998,151.96550359470504L241.5,147.1493001835687L242.2,155.5881543670382L242.9,139.11593308619092L243.6,153.20370015927722L244.3,152.97847753337453L245,143.91119847127368" style="fill: none;" fill="none"></path></g><g><path stroke="rgb(0, 119, 187)" stroke-width="2px" d="M35,15.725959437234069L49,136.7691756146295L63,135.90073697907584L77,136.01192215510775L91,136.68066695758273L105,137.88348402295793L119,136.81583384105136L133,137.10902197020394L147,138.0557930128915L161,137.15859501702445L175,139.19040719951903L189,136.75778761931826L203,137.2406772034509L217,136.90912316526686L231,139.39474605662483L245,138.76297003882271" style="fill: none;" fill="none"></path></g></g></g></g></g></g><g transform="translate(50, 177)" clip-path="url(#clip_1)"><clipPath id="clip_1"><rect width="280" height="23"></rect></clipPath><g><g><line x1="0" y1="0" x2="0" y2="5" style="visibility: inherit;" fill="rgb(0, 0, 0)" stroke="rgb(204, 204, 204)" stroke-width="1px"></line><line x1="35" y1="0" x2="35" y2="5" style="visibility: inherit;" fill="rgb(0, 0, 0)" stroke="rgb(204, 204, 204)" stroke-width="1px"></line><line x1="70" y1="0" x2="70" y2="5" style="visibility: inherit;" fill="rgb(0, 0, 0)" stroke="rgb(204, 204, 204)" stroke-width="1px"></line><line x1="105" y1="0" x2="105" y2="5" style="visibility: inherit;" fill="rgb(0, 0, 0)" stroke="rgb(204, 204, 204)" stroke-width="1px"></line><line x1="140" y1="0" x2="140" y2="5" style="visibility: inherit;" fill="rgb(0, 0, 0)" stroke="rgb(204, 204, 204)" stroke-width="1px"></line><line x1="175" y1="0" x2="175" y2="5" style="visibility: inherit;" fill="rgb(0, 0, 0)" stroke="rgb(204, 204, 204)" stroke-width="1px"></line><line x1="210" y1="0" x2="210" y2="5" style="visibility: inherit;" fill="rgb(0, 0, 0)" stroke="rgb(204, 204, 204)" stroke-width="1px"></line><line x1="245" y1="0" x2="245" y2="5" style="visibility: inherit;" fill="rgb(0, 0, 0)" stroke="rgb(204, 204, 204)" stroke-width="1px"></line><line x1="280" y1="0" x2="280" y2="5" style="visibility: inherit;" fill="rgb(0, 0, 0)" stroke="rgb(204, 204, 204)" stroke-width="1px"></line></g><g transform="translate(0, 8)"><text x="0" y="0" dx="0em" dy="0.95em" style="text-anchor: middle; visibility: hidden; font-family: Roboto, sans-serif; font-size: 12px; font-weight: 200;" fill="rgb(33, 33, 33)" stroke="none" stroke-width="1px">-5k</text><text x="35" y="0" dx="0em" dy="0.95em" style="text-anchor: middle; visibility: inherit; font-family: Roboto, sans-serif; font-size: 12px; font-weight: 200;" fill="rgb(33, 33, 33)" stroke="none" stroke-width="1px">0</text><text x="70" y="0" dx="0em" dy="0.95em" style="text-anchor: middle; visibility: inherit; font-family: Roboto, sans-serif; font-size: 12px; font-weight: 200;" fill="rgb(33, 33, 33)" stroke="none" stroke-width="1px">5k</text><text x="105" y="0" dx="0em" dy="0.95em" style="text-anchor: middle; visibility: inherit; font-family: Roboto, sans-serif; font-size: 12px; font-weight: 200;" fill="rgb(33, 33, 33)" stroke="none" stroke-width="1px">10k</text><text x="140" y="0" dx="0em" dy="0.95em" style="text-anchor: middle; visibility: inherit; font-family: Roboto, sans-serif; font-size: 12px; font-weight: 200;" fill="rgb(33, 33, 33)" stroke="none" stroke-width="1px">15k</text><text x="175" y="0" dx="0em" dy="0.95em" style="text-anchor: middle; visibility: inherit; font-family: Roboto, sans-serif; font-size: 12px; font-weight: 200;" fill="rgb(33, 33, 33)" stroke="none" stroke-width="1px">20k</text><text x="210" y="0" dx="0em" dy="0.95em" style="text-anchor: middle; visibility: inherit; font-family: Roboto, sans-serif; font-size: 12px; font-weight: 200;" fill="rgb(33, 33, 33)" stroke="none" stroke-width="1px">25k</text><text x="245" y="0" dx="0em" dy="0.95em" style="text-anchor: middle; visibility: inherit; font-family: Roboto, sans-serif; font-size: 12px; font-weight: 200;" fill="rgb(33, 33, 33)" stroke="none" stroke-width="1px">30k</text><text x="280" y="0" dx="0em" dy="0.95em" style="text-anchor: middle; visibility: hidden; font-family: Roboto, sans-serif; font-size: 12px; font-weight: 200;" fill="rgb(33, 33, 33)" stroke="none" stroke-width="1px">35k</text></g><line x1="0" y1="0" x2="280" y2="0" fill="rgb(0, 0, 0)" stroke="rgb(204, 204, 204)" stroke-width="1px"></line></g></g></g></g></svg>