<svg viewBox="0 0 330 200" xmlns="http://www.w3.org/2000/svg"><g><g><g><g><g><line x1="40" y1="177" x2="35" y2="177" style="visibility: inherit;" fill="rgb(0, 0, 0)" stroke="rgb(204, 204, 204)" stroke-width="1px"></line><line x1="40" y1="151.71428571428572" x2="35" y2="151.71428571428572" style="visibility: inherit;" fill="rgb(0, 0, 0)" stroke="rgb(204, 204, 204)" stroke-width="1px"></line><line x1="40" y1="126.42857142857143" x2="35" y2="126.42857142857143" style="visibility: inherit;" fill="rgb(0, 0, 0)" stroke="rgb(204, 204, 204)" stroke-width="1px"></line><line x1="40" y1="101.14285714285714" x2="35" y2="101.14285714285714" style="visibility: inherit;" fill="rgb(0, 0, 0)" stroke="rgb(204, 204, 204)" stroke-width="1px"></line><line x1="40" y1="75.85714285714286" x2="35" y2="75.85714285714286" style="visibility: inherit;" fill="rgb(0, 0, 0)" stroke="rgb(204, 204, 204)" stroke-width="1px"></line><line x1="40" y1="50.57142857142857" x2="35" y2="50.57142857142857" style="visibility: inherit;" fill="rgb(0, 0, 0)" stroke="rgb(204, 204, 204)" stroke-width="1px"></line><line x1="40" y1="25.285714285714295" x2="35" y2="25.285714285714295" style="visibility: inherit;" fill="rgb(0, 0, 0)" stroke="rgb(204, 204, 204)" stroke-width="1px"></line><line x1="40" y1="0" x2="35" y2="0" style="visibility: inherit;" fill="rgb(0, 0, 0)" stroke="rgb(204, 204, 204)" stroke-width="1px"></line></g><g transform="translate(30, 0)"><text x="0" y="177" dx="0em" dy="0.3em" style="text-anchor: end; visibility: hidden; font-family: Roboto, sans-serif; font-size: 12px; font-weight: 200;" fill="rgb(33, 33, 33)" stroke="none" stroke-width="1px">0.5</text><text x="0" y="151.71428571428572" dx="0em" dy="0.3em" style="text-anchor: end; visibility: inherit; font-family: Roboto, sans-serif; font-size: 12px; font-weight: 200;" fill="rgb(33, 33, 33)" stroke="none" stroke-width="1px">1</text><text x="0" y="126.42857142857143" dx="0em" dy="0.3em" style="text-anchor: end; visibility: inherit; font-family: Roboto, sans-serif; font-size: 12px; font-weight: 200;" fill="rgb(33, 33, 33)" stroke="none" stroke-width="1px">1.5</text><text x="0" y="101.14285714285714" dx="0em" dy="0.3em" style="text-anchor: end; visibility: inherit; font-family: Roboto, sans-serif; font-size: 12px; font-weight: 200;" fill="rgb(33, 33, 33)" stroke="none" stroke-width="1px">2</text><text x="0" y="75.85714285714286" dx="0em" dy="0.3em" style="text-anchor: end; visibility: inherit; font-family: Roboto, sans-serif; font-size: 12px; font-weight: 200;" fill="rgb(33, 33, 33)" stroke="none" stroke-width="1px">2.5</text><text x="0" y="50.57142857142857" dx="0em" dy="0.3em" style="text-anchor: end; visibility: inherit; font-family: Roboto, sans-serif; font-size: 12px; font-weight: 200;" fill="rgb(33, 33, 33)" stroke="none" stroke-width="1px">3</text><text x="0" y="25.285714285714295" dx="0em" dy="0.3em" style="text-anchor: end; visibility: inherit; font-family: Roboto, sans-serif; font-size: 12px; font-weight: 200;" fill="rgb(33, 33, 33)" stroke="none" stroke-width="1px">3.5</text><text x="0" y="0" dx="0em" dy="0.3em" style="text-anchor: end; visibility: hidden; font-family: Roboto, sans-serif; font-size: 12px; font-weight: 200;" fill="rgb(33, 33, 33)" stroke="none" stroke-width="1px">4</text></g><line x1="40" y1="0" x2="40" y2="177" fill="rgb(0, 0, 0)" stroke="rgb(204, 204, 204)" stroke-width="1px"></line></g></g><g transform="translate(40, 0)" clip-path="url(#clip_0)"><clipPath id="clip_0"><rect width="290" height="177"></rect></clipPath><g><g><g><line x1="0" y1="0" x2="0" y2="177" fill="rgb(0, 0, 0)" stroke="rgb(66, 66, 66)" stroke-width="1px" opacity="0.25"></line><line x1="24.166666666666664" y1="0" x2="24.166666666666664" y2="177" fill="rgb(0, 0, 0)" stroke="rgb(66, 66, 66)" stroke-width="1px" opacity="0.25"></line><line x1="48.33333333333333" y1="0" x2="48.33333333333333" y2="177" fill="rgb(0, 0, 0)" stroke="rgb(66, 66, 66)" stroke-width="1px" opacity="0.25"></line><line x1="72.5" y1="0" x2="72.5" y2="177" fill="rgb(0, 0, 0)" stroke="rgb(66, 66, 66)" stroke-width="1px" opacity="0.25"></line><line x1="96.66666666666666" y1="0" x2="96.66666666666666" y2="177" fill="rgb(0, 0, 0)" stroke="rgb(66, 66, 66)" stroke-width="1px" opacity="0.25"></line><line x1="120.83333333333334" y1="0" x2="120.83333333333334" y2="177" fill="rgb(0, 0, 0)" stroke="rgb(66, 66, 66)" stroke-width="1px" opacity="0.25"></line><line x1="145" y1="0" x2="145" y2="177" fill="rgb(0, 0, 0)" stroke="rgb(66, 66, 66)" stroke-width="1px" opacity="0.25"></line><line x1="169.16666666666669" y1="0" x2="169.16666666666669" y2="177" fill="rgb(0, 0, 0)" stroke="rgb(66, 66, 66)" stroke-width="1px" opacity="0.25"></line><line x1="193.33333333333331" y1="0" x2="193.33333333333331" y2="177" fill="rgb(0, 0, 0)" stroke="rgb(66, 66, 66)" stroke-width="1px" opacity="0.25"></line><line x1="217.5" y1="0" x2="217.5" y2="177" fill="rgb(0, 0, 0)" stroke="rgb(66, 66, 66)" stroke-width="1px" opacity="0.25"></line><line x1="241.66666666666669" y1="0" x2="241.66666666666669" y2="177" fill="rgb(0, 0, 0)" stroke="rgb(66, 66, 66)" stroke-width="1px" opacity="0.25"></line><line x1="265.8333333333333" y1="0" x2="265.8333333333333" y2="177" fill="rgb(0, 0, 0)" stroke="rgb(66, 66, 66)" stroke-width="1px" opacity="0.25"></line><line x1="290" y1="0" x2="290" y2="177" fill="rgb(0, 0, 0)" stroke="rgb(66, 66, 66)" stroke-width="1px" opacity="0.25"></line></g><g><line x1="0" y1="177" x2="290" y2="177" fill="rgb(0, 0, 0)" stroke="rgb(66, 66, 66)" stroke-width="1px" opacity="0.25"></line><line x1="0" y1="151.71428571428572" x2="290" y2="151.71428571428572" fill="rgb(0, 0, 0)" stroke="rgb(66, 66, 66)" stroke-width="1px" opacity="0.25"></line><line x1="0" y1="126.42857142857143" x2="290" y2="126.42857142857143" fill="rgb(0, 0, 0)" stroke="rgb(66, 66, 66)" stroke-width="1px" opacity="0.25"></line><line x1="0" y1="101.14285714285714" x2="290" y2="101.14285714285714" fill="rgb(0, 0, 0)" stroke="rgb(66, 66, 66)" stroke-width="1px" opacity="0.25"></line><line x1="0" y1="75.85714285714286" x2="290" y2="75.85714285714286" fill="rgb(0, 0, 0)" stroke="rgb(66, 66, 66)" stroke-width="1px" opacity="0.25"></line><line x1="0" y1="50.57142857142857" x2="290" y2="50.57142857142857" fill="rgb(0, 0, 0)" stroke="rgb(66, 66, 66)" stroke-width="1px" opacity="0.25"></line><line x1="0" y1="25.285714285714295" x2="290" y2="25.285714285714295" fill="rgb(0, 0, 0)" stroke="rgb(66, 66, 66)" stroke-width="1px" opacity="0.25"></line><line x1="0" y1="0" x2="290" y2="0" fill="rgb(0, 0, 0)" stroke="rgb(66, 66, 66)" stroke-width="1px" opacity="0.25"></line></g></g></g><g><g><line x1="0" y1="202.28571428571428" x2="290" y2="202.28571428571428" fill="rgb(0, 0, 0)" stroke="rgb(153, 153, 153)" stroke-width="1.5px"></line></g></g><g><g><line x1="24.166666666666664" y1="0" x2="24.166666666666664" y2="177" fill="rgb(0, 0, 0)" stroke="rgb(153, 153, 153)" stroke-width="1.5px"></line></g></g><g><g><g><g><g><path stroke="rgb(255, 112, 67)" stroke-width="2px" d="M25.375,76.47773735863822L26.583333333333332,84.87738643891123L27.791666666666668,79.47207325162316L29,33.66817686864127L30.208333333333336,52.14960580077712L31.416666666666668,52.20285592697608L32.625,42.410621824433115L33.833333333333336,48.70914370979303L35.041666666666664,49.104864674811154L36.25,55.97995741408743L37.458333333333336,16.71508867159247L38.666666666666664,38.439016691031526L39.875,41.15444740390039L41.083333333333336,44.47232042888592L42.29166666666667,55.38852441145705L43.5,65.42464439541226L44.708333333333336,54.7601137429016L45.916666666666664,54.73252977704526L47.125,67.46060789927851L48.33333333333333,70.9363598924859L49.541666666666664,46.18711950806559L50.75,62.569115380651795L51.958333333333336,72.54676614654589L53.166666666666664,76.4809355278714L54.375,80.54356538612195L55.583333333333336,83.2396267321583L56.791666666666664,69.61755139399939L58,81.84570341003898L59.208333333333336,79.65684875824626L60.41666666666667,80.83580999126815L61.625,66.14191859330718L62.833333333333336,87.19096474368557L64.04166666666667,91.22392248808612L65.25,88.9484931739049L66.45833333333333,95.03651533491437L67.66666666666667,99.2957581952905L68.875,89.83618169657385L70.08333333333333,96.59020533920035L71.29166666666666,83.03303859195692L72.5,98.16368867478614L73.70833333333333,106.0386650621998L74.91666666666667,104.45856645549986L76.125,112.855942844127L77.33333333333333,110.21255746868387L78.54166666666666,103.45661540732722L79.75,114.29264838818446L80.95833333333333,97.18667743905715L82.16666666666667,61.28385680591347L83.375,89.69770745337121L84.58333333333334,101.05518000786775L85.79166666666667,105.97109627497824L87,116.1841695933347L88.20833333333333,120.80047354834262L89.41666666666667,119.64218644538812L90.625,121.33127800518396L91.83333333333333,112.46904138552468L93.04166666666667,115.29950085091862L94.25,113.51086974732029L95.45833333333333,68.82192989944929L96.66666666666666,70.00229766972235L97.875,81.2448864186204L99.08333333333333,86.82645002867761L100.29166666666667,86.58967850647103L101.5,97.42102225395507L102.70833333333334,62.019706926981414L103.91666666666667,75.26422180070996L105.125,81.17219898895729L106.33333333333333,85.6212830850997L107.54166666666667,97.90727861339589L108.75,100.95470604635126L109.95833333333333,107.06594654468844L111.16666666666667,107.36672723985178L112.375,102.89121694417418L113.58333333333333,108.37989360383362L114.79166666666666,100.85286084666738L116,108.1433565519017L117.20833333333333,118.90321480175719L118.41666666666667,85.62896506802144L119.625,102.4191777450615L120.83333333333334,110.68819661465363L122.04166666666667,108.97680927588114L123.25,122.56212265623485L124.45833333333333,121.27221798122116L125.66666666666667,113.12094107614305L126.875,121.64902266416821L128.08333333333334,118.79146575535499L129.29166666666669,117.75324494986542L130.5,114.29193089745779L131.70833333333334,120.57771025964088L132.91666666666666,126.23363224989096L134.125,98.77523905895264L135.33333333333334,110.75392330621348L136.54166666666666,112.23747113595833L137.75,114.52263797801132L138.95833333333334,123.43561467406869L140.16666666666666,126.06427497205391L141.375,117.62707807628179L142.58333333333331,129.28485271696138L143.79166666666666,115.48557664672097L145,107.98225490405385L146.20833333333334,96.78065086999332L147.41666666666666,106.81430710597667L148.625,106.8319636323825L149.83333333333334,103.99013880223805L151.04166666666669,111.52017980779793L152.25,112.82921968631284L153.45833333333334,119.0955216631539L154.66666666666666,108.86344391776638L155.875,110.82858737507541L157.08333333333331,118.22297793508154L158.29166666666666,118.33928969655044L159.5,104.59543463339656L160.70833333333334,119.68102544689212L161.91666666666666,126.22311311065226L163.125,132.39724176718883L164.33333333333334,133.73628862522463L165.54166666666666,132.21985606482403L166.75,129.26781600435902L167.95833333333334,133.90875361085202L169.16666666666669,136.7806617712771L170.375,138.2164701047423L171.58333333333334,138.45151313471786L172.79166666666666,127.75813089197148L174,64.37986606816744L175.20833333333331,98.5625688406452L176.41666666666666,113.12322078513434L177.625,125.45006457022414L178.83333333333334,129.47813746672355L180.04166666666666,86.60618273982935L181.25,87.24634387191477L182.45833333333334,37.84215557684302L183.66666666666666,81.88242588746597L184.875,108.38191838920964L186.08333333333334,122.34496219003339L187.29166666666669,129.52698463116428L188.5,121.8184642208289L189.70833333333334,139.0125437509365L190.91666666666666,135.77060620117754L192.125,128.18577009593275L193.33333333333331,140.71347251808837L194.54166666666666,139.42253954860976L195.75,124.29055838796094L196.95833333333334,125.21318642340275L198.16666666666666,129.35561958049107L199.375,133.06215295103158L200.58333333333334,137.567176567769L201.79166666666666,123.32946298167167L203,130.70164456095512L204.20833333333334,137.03837212517266L205.41666666666669,144.47551250654723L206.625,144.5106917235648L207.83333333333334,149.14107541885218L209.04166666666666,145.16543815952963L210.25,143.42554143278352L211.45833333333331,144.15043100871083L212.66666666666666,152.1429555817716L213.875,146.0833473482674L215.08333333333334,137.89473536843354L216.29166666666666,144.44125824444933L217.5,123.28676537966976L218.70833333333334,131.1426282643181L219.91666666666666,137.76634171645466L221.125,131.98546167027098L222.33333333333334,130.69504885279866L223.54166666666669,136.4616357620793L224.75,131.17345300950385L225.95833333333334,145.0619092914973L227.16666666666666,141.25692477692877L228.375,141.23283869396667L229.58333333333331,145.1444406989018L230.79166666666666,150.29185067940597L232,151.5611170952113L233.20833333333334,157.71329978686063L234.41666666666666,147.8199867231104L235.625,148.389219604792L236.83333333333334,144.5010060577355L238.04166666666666,144.38885001745228L239.25,125.99655585133533L240.45833333333334,134.78256867945322L241.66666666666669,145.80728231726923L242.875,138.44877635365015L244.08333333333334,142.32161068700793L245.29166666666666,145.52932674882396L246.5,151.5044272567171L247.70833333333331,154.53116833304293L248.91666666666666,140.28521600670555L250.125,151.46805900883774L251.33333333333334,153.9442269793052L252.54166666666666,156.09436080339287L253.75,149.59185945947397L254.95833333333334,129.971614210129L256.1666666666667,145.31699332383954L257.375,148.66103649683058L258.58333333333337,150.6730308980042L259.7916666666667,150.21027817556646L261,154.86883753965242L262.2083333333333,154.58955908173897L263.4166666666667,142.36346667274893L264.625,154.95698235195164L265.8333333333333,150.09590419736767" style="fill: none;" fill="none"></path></g><g><path stroke="rgb(0, 119, 187)" stroke-width="2px" d="M24.166666666666664,84.72447865349906L48.33333333333333,67.58514630586141L72.5,82.5731196949024L96.66666666666666,65.91834890317747L120.83333333333334,87.22168606522783L145,93.29511665866536L145,95.82959984607812L169.16666666666669,98.43058229807117L193.33333333333331,111.13592177979179L217.5,121.63962196922972L241.66666666666669,125.87170459445237L265.8333333333333,132.96635093636792" style="fill: none;" fill="none"></path></g></g></g></g><g opacity="0.2"><g><g><g><path stroke="rgb(255, 112, 67)" stroke-width="2px" d="M25.375,76.47773735863822L26.583333333333332,88.42203835078648L27.791666666666668,76.22843129294259L29,2.739762374332967L30.208333333333336,65.21504013878959L31.416666666666668,52.24121373040336L32.625,35.30165209089007L33.833333333333336,53.296758515494204L35.041666666666664,49.39349147251674L36.25,60.997358322143555L37.458333333333336,-11.947206769670776L38.666666666666664,54.29854038783482L39.875,43.13693046569824L41.083333333333336,46.8946795463562L42.29166666666667,63.358441216605044L43.5,72.75203623090472L44.708333333333336,46.97390719822475L45.916666666666664,54.71239062717983L47.125,76.75342450823102L48.33333333333333,73.47401945931571L49.541666666666664,28.11760548182896L50.75,74.52967275891986L51.958333333333336,79.83148690632412L53.166666666666664,79.35328756059918L54.375,83.50970690590995L55.583333333333336,85.20803138187954L56.791666666666664,59.672022342681885L58,90.77352373940604L59.208333333333336,78.05875764574323L60.41666666666667,81.69657407488141L61.625,55.4138525554112L62.833333333333336,102.55895345551627L64.04166666666667,94.16840028762817L65.25,87.28719357081822L66.45833333333333,99.48140348706926L67.66666666666667,102.40544761930192L68.875,82.92970888955253L70.08333333333333,101.52134370803833L71.29166666666666,73.13489954812187L72.5,109.2106338909694L73.70833333333333,111.78821529660905L74.91666666666667,103.3049304485321L76.125,118.98689930779594L77.33333333333333,108.28261174474443L78.54166666666666,98.5240763936724L79.75,122.20407731192452L80.95833333333333,84.69754293986729L82.16666666666667,35.07107080732074L83.375,110.44276796068465L84.58333333333334,109.34731394904L85.79166666666667,109.56022545269558L87,123.6407732963562L88.20833333333333,124.17085463660104L89.41666666666667,118.79651662281582L90.625,122.56449018205916L91.83333333333333,105.99868869781494L93.04166666666667,117.36603007997786L94.25,112.2049833706447L95.45833333333333,36.194364820207866L96.66666666666666,70.86408867154803L97.875,89.45314325605119L99.08333333333333,90.90157086508614L100.29166666666667,86.41681071690151L101.5,105.32902755056108L102.70833333333334,36.17307186126709L103.91666666666667,84.93409252166748L105.125,85.4856356212071L106.33333333333333,88.86957631792342L107.54166666666667,106.8773307119097L108.75,103.17964441435677L109.95833333333333,111.52778649330139L111.16666666666667,107.58632837023055L112.375,99.6236298424857L113.58333333333333,112.38719732420785L114.79166666666666,95.35734558105469L116,113.46617521558488L117.20833333333333,126.75902826445443L118.41666666666667,61.335308688027524L119.625,114.67777592795235L120.83333333333334,116.7254387651171L122.04166666666667,107.72731886591231L123.25,132.48081166403634L124.45833333333333,120.33045366832188L125.66666666666667,107.1696627821241L126.875,127.87540749141148L128.08333333333334,116.70515257971627L129.29166666666669,116.99523598807198L130.5,111.76481233324324L131.70833333333334,125.16698169708252L132.91666666666666,130.36304242270333L134.125,78.72776167733329L135.33333333333334,119.4996062687465L136.54166666666666,113.32061505317688L137.75,116.19104698726109L138.95833333333334,129.94301288468498L140.16666666666666,127.98346986089433L141.375,111.46704850878035L142.58333333333331,137.7962383542742L143.79166666666666,105.41067266464233L145,102.5040511403765L146.20833333333334,88.60231712886265L147.41666666666666,114.1399177142552L148.625,106.84485472951616L149.83333333333334,101.91531167711531L151.04166666666669,117.01789140701294L152.25,113.78495468412126L153.45833333333334,123.67057258742196L154.66666666666666,101.39296501023429L155.875,112.26334609304155L157.08333333333331,123.62165062768119L158.29166666666666,118.42420935630798L159.5,94.56099373953683L160.70833333333334,130.695072719029L161.91666666666666,130.99951621464322L163.125,136.90499659946988L164.33333333333334,134.71393183299472L165.54166666666666,131.11270288058688L166.75,127.1125203200749L167.95833333333334,137.29711982182096L169.16666666666669,138.8774528503418L170.375,139.2647592340197L171.58333333333334,138.62311894553048L172.79166666666666,119.95085181508745L174,18.107153688158306L175.20833333333331,123.5194902420044L176.41666666666666,123.75400819097246L177.625,134.44994013650077L178.83333333333334,132.4190488202231L180.04166666666666,55.3052054132734L181.25,87.7137279510498L182.45833333333334,1.7719696589878544L183.66666666666666,114.03639486857823L184.875,127.72929872785295L186.08333333333334,132.53943361554826L187.29166666666669,134.77060655185153L188.5,116.19044412885393L189.70833333333334,151.56600666046143L190.91666666666666,133.40365525654386L192.125,122.64805238587516L193.33333333333331,149.85999573980058L194.54166666666666,138.48002447400773L195.75,113.24264134679521L196.95833333333334,125.88680066381181L198.16666666666666,132.38002579552787L199.375,135.7683070727757L200.58333333333334,140.85631145749772L201.79166666666666,112.93445410047258L203,136.08410239219666L204.20833333333334,141.66484103884017L205.41666666666669,149.90539700644356L206.625,144.53637620380948L207.83333333333334,152.5217361790793L209.04166666666666,142.2628102643149L210.25,142.15523621014188L211.45833333333331,144.67967564719063L212.66666666666666,157.97832819393705L213.875,141.65920431273324L215.08333333333334,131.91619859422957L216.29166666666666,149.2208995137896L217.5,107.84178962026323L218.70833333333334,136.87822365760803L219.91666666666666,142.60234011922563L221.125,127.76481914520264L222.33333333333334,129.7529135431562L223.54166666666669,140.67184281349182L224.75,127.3125306538173L225.95833333333334,155.20192408561707L227.16666666666666,138.4788911002023L228.375,141.2152533531189L229.58333333333331,148.00031621115548L230.79166666666666,154.04999429838998L232,152.48781333650862L233.20833333333334,162.20503178664615L234.41666666666666,140.59684119905745L235.625,148.8048186983381L236.83333333333334,141.66220654760087L238.04166666666666,144.30696446555L239.25,112.56827187538147L240.45833333333334,141.1972700868334L241.66666666666669,153.85646770681655L242.875,133.0763031414577L244.08333333333334,145.14918177468437L245.29166666666666,147.8712924548558L246.5,155.86687088012695L247.70833333333331,156.74100351333618L248.91666666666666,129.88419198989868L250.125,159.63269524914878L251.33333333333334,155.7520866394043L252.54166666666666,157.66418169225963L253.75,144.84435847827365L254.95833333333334,115.64679847444808L256.1666666666667,156.52071302277702L257.375,151.10253514562334L258.58333333333337,152.14199566841125L259.7916666666667,149.8724206515721L261,158.2700694629124L262.2083333333333,154.3856568166188L263.4166666666667,133.43715006964547L264.625,164.15155608313424L265.8333333333333,146.54681253433228" style="fill: none;" fill="none"></path></g><g><path stroke="rgb(0, 119, 187)" stroke-width="2px" d="M24.166666666666664,84.72447865349906L48.33333333333333,60.352348055158345L72.5,91.5671627180917L96.66666666666666,54.672457286289756L120.83333333333334,102.28206661769322L145,97.67000688825334L145,97.66958488736833L169.16666666666669,100.32504354204451L193.33333333333331,120.40280873434884L217.5,129.30515854699271L241.66666666666669,128.96101079668318L265.8333333333333,138.14578771591187" style="fill: none;" fill="none"></path></g></g></g></g></g></g><g transform="translate(40, 177)" clip-path="url(#clip_1)"><clipPath id="clip_1"><rect width="290" height="23"></rect></clipPath><g><g><line x1="0" y1="0" x2="0" y2="5" style="visibility: inherit;" fill="rgb(0, 0, 0)" stroke="rgb(204, 204, 204)" stroke-width="1px"></line><line x1="24.166666666666664" y1="0" x2="24.166666666666664" y2="5" style="visibility: inherit;" fill="rgb(0, 0, 0)" stroke="rgb(204, 204, 204)" stroke-width="1px"></line><line x1="48.33333333333333" y1="0" x2="48.33333333333333" y2="5" style="visibility: inherit;" fill="rgb(0, 0, 0)" stroke="rgb(204, 204, 204)" stroke-width="1px"></line><line x1="72.5" y1="0" x2="72.5" y2="5" style="visibility: inherit;" fill="rgb(0, 0, 0)" stroke="rgb(204, 204, 204)" stroke-width="1px"></line><line x1="96.66666666666666" y1="0" x2="96.66666666666666" y2="5" style="visibility: inherit;" fill="rgb(0, 0, 0)" stroke="rgb(204, 204, 204)" stroke-width="1px"></line><line x1="120.83333333333334" y1="0" x2="120.83333333333334" y2="5" style="visibility: inherit;" fill="rgb(0, 0, 0)" stroke="rgb(204, 204, 204)" stroke-width="1px"></line><line x1="145" y1="0" x2="145" y2="5" style="visibility: inherit;" fill="rgb(0, 0, 0)" stroke="rgb(204, 204, 204)" stroke-width="1px"></line><line x1="169.16666666666669" y1="0" x2="169.16666666666669" y2="5" style="visibility: inherit;" fill="rgb(0, 0, 0)" stroke="rgb(204, 204, 204)" stroke-width="1px"></line><line x1="193.33333333333331" y1="0" x2="193.33333333333331" y2="5" style="visibility: inherit;" fill="rgb(0, 0, 0)" stroke="rgb(204, 204, 204)" stroke-width="1px"></line><line x1="217.5" y1="0" x2="217.5" y2="5" style="visibility: inherit;" fill="rgb(0, 0, 0)" stroke="rgb(204, 204, 204)" stroke-width="1px"></line><line x1="241.66666666666669" y1="0" x2="241.66666666666669" y2="5" style="visibility: inherit;" fill="rgb(0, 0, 0)" stroke="rgb(204, 204, 204)" stroke-width="1px"></line><line x1="265.8333333333333" y1="0" x2="265.8333333333333" y2="5" style="visibility: inherit;" fill="rgb(0, 0, 0)" stroke="rgb(204, 204, 204)" stroke-width="1px"></line><line x1="290" y1="0" x2="290" y2="5" style="visibility: inherit;" fill="rgb(0, 0, 0)" stroke="rgb(204, 204, 204)" stroke-width="1px"></line></g><g transform="translate(0, 8)"><text x="0" y="0" dx="0em" dy="0.95em" style="text-anchor: middle; visibility: hidden; font-family: Roboto, sans-serif; font-size: 12px; font-weight: 200;" fill="rgb(33, 33, 33)" stroke="none" stroke-width="1px">-2k</text><text x="24.166666666666664" y="0" dx="0em" dy="0.95em" style="text-anchor: middle; visibility: inherit; font-family: Roboto, sans-serif; font-size: 12px; font-weight: 200;" fill="rgb(33, 33, 33)" stroke="none" stroke-width="1px">0</text><text x="48.33333333333333" y="0" dx="0em" dy="0.95em" style="text-anchor: middle; visibility: hidden; font-family: Roboto, sans-serif; font-size: 12px; font-weight: 200;" fill="rgb(33, 33, 33)" stroke="none" stroke-width="1px">2k</text><text x="72.5" y="0" dx="0em" dy="0.95em" style="text-anchor: middle; visibility: inherit; font-family: Roboto, sans-serif; font-size: 12px; font-weight: 200;" fill="rgb(33, 33, 33)" stroke="none" stroke-width="1px">4k</text><text x="96.66666666666666" y="0" dx="0em" dy="0.95em" style="text-anchor: middle; visibility: hidden; font-family: Roboto, sans-serif; font-size: 12px; font-weight: 200;" fill="rgb(33, 33, 33)" stroke="none" stroke-width="1px">6k</text><text x="120.83333333333334" y="0" dx="0em" dy="0.95em" style="text-anchor: middle; visibility: inherit; font-family: Roboto, sans-serif; font-size: 12px; font-weight: 200;" fill="rgb(33, 33, 33)" stroke="none" stroke-width="1px">8k</text><text x="145" y="0" dx="0em" dy="0.95em" style="text-anchor: middle; visibility: hidden; font-family: Roboto, sans-serif; font-size: 12px; font-weight: 200;" fill="rgb(33, 33, 33)" stroke="none" stroke-width="1px">10k</text><text x="169.16666666666669" y="0" dx="0em" dy="0.95em" style="text-anchor: middle; visibility: inherit; font-family: Roboto, sans-serif; font-size: 12px; font-weight: 200;" fill="rgb(33, 33, 33)" stroke="none" stroke-width="1px">12k</text><text x="193.33333333333331" y="0" dx="0em" dy="0.95em" style="text-anchor: middle; visibility: hidden; font-family: Roboto, sans-serif; font-size: 12px; font-weight: 200;" fill="rgb(33, 33, 33)" stroke="none" stroke-width="1px">14k</text><text x="217.5" y="0" dx="0em" dy="0.95em" style="text-anchor: middle; visibility: inherit; font-family: Roboto, sans-serif; font-size: 12px; font-weight: 200;" fill="rgb(33, 33, 33)" stroke="none" stroke-width="1px">16k</text><text x="241.66666666666669" y="0" dx="0em" dy="0.95em" style="text-anchor: middle; visibility: hidden; font-family: Roboto, sans-serif; font-size: 12px; font-weight: 200;" fill="rgb(33, 33, 33)" stroke="none" stroke-width="1px">18k</text><text x="265.8333333333333" y="0" dx="0em" dy="0.95em" style="text-anchor: middle; visibility: inherit; font-family: Roboto, sans-serif; font-size: 12px; font-weight: 200;" fill="rgb(33, 33, 33)" stroke="none" stroke-width="1px">20k</text><text x="290" y="0" dx="0em" dy="0.95em" style="text-anchor: middle; visibility: hidden; font-family: Roboto, sans-serif; font-size: 12px; font-weight: 200;" fill="rgb(33, 33, 33)" stroke="none" stroke-width="1px">22k</text></g><line x1="0" y1="0" x2="290" y2="0" fill="rgb(0, 0, 0)" stroke="rgb(204, 204, 204)" stroke-width="1px"></line></g></g></g></g></svg>